<svg id="Layer_1" data-name="Layer 1" xmlns="http://www.w3.org/2000/svg" viewBox="0 0 656.7 741.11"><defs><style>.cls-1,.cls-3{fill:#fffd82;}.cls-2{fill:#2d3047;}.cls-3{font-size:170px;font-family:FreestyleScript-Regular, Freestyle Script;}</style></defs><title>logo</title><path class="cls-1" d="M1249.5,316.87,958.44,821,667.37,316.87H1249.5M1264,288.31H652.91a20.21,20.21,0,0,0-17.5,30.32L940.93,847.82a20.22,20.22,0,0,0,35,0l305.53-529.19A20.22,20.22,0,0,0,1264,288.31Z" transform="translate(-630.09 -116.81)"/><path class="cls-2" d="M944,125.15,632.35,664.93a16.68,16.68,0,0,0,14.44,25h623.29a16.68,16.68,0,0,0,14.45-25L972.88,125.15A16.68,16.68,0,0,0,944,125.15ZM890,352.76h0a16.68,16.68,0,0,1,0,16.68L816,497.56a16.68,16.68,0,0,1-28.89,0h0a16.68,16.68,0,0,1,0-16.68l74-128.12A16.68,16.68,0,0,1,890,352.76ZM820.15,538l74-128.12a16.68,16.68,0,0,1,28.89,0l124.57,215.76a16.68,16.68,0,0,1-14.45,25H885.19a16.68,16.68,0,0,1-14.44-8.34l-50.6-87.64A16.68,16.68,0,0,1,820.15,538Z" transform="translate(-630.09 -116.81)"/><text class="cls-3" transform="translate(279.75 214.03) rotate(59.55)">BinKow!</text></svg>